<svg width="21" height="20" viewBox="0 0 21 20" fill="none" xmlns="http://www.w3.org/2000/svg">
<path d="M9.6123 19.1904C9.24902 19.1904 8.93262 19.0879 8.66309 18.8828C8.39941 18.6777 8.22656 18.3994 8.14453 18.0479L7.78418 16.4922L7.54688 16.4131L6.20215 17.2393C5.89746 17.4326 5.5752 17.5059 5.23535 17.459C4.90137 17.418 4.60547 17.2686 4.34766 17.0107L3.11719 15.7891C2.85352 15.5254 2.70117 15.2266 2.66016 14.8926C2.61914 14.5586 2.69531 14.2393 2.88867 13.9346L3.73242 12.5898L3.65332 12.3701L2.09766 12.0098C1.75195 11.9277 1.47363 11.752 1.2627 11.4824C1.05762 11.2129 0.955078 10.8994 0.955078 10.542V8.81055C0.955078 8.45312 1.05762 8.14258 1.2627 7.87891C1.46777 7.60938 1.74609 7.43066 2.09766 7.34277L3.63574 6.97363L3.72363 6.73633L2.87988 5.3916C2.68652 5.09277 2.61035 4.77637 2.65137 4.44238C2.69238 4.1084 2.84473 3.80957 3.1084 3.5459L4.33887 2.31543C4.59668 2.05762 4.89258 1.9082 5.22656 1.86719C5.56055 1.82031 5.87988 1.89063 6.18457 2.07812L7.53809 2.91309L7.78418 2.81641L8.14453 1.26074C8.22656 0.915039 8.39941 0.639648 8.66309 0.43457C8.93262 0.223633 9.24902 0.118164 9.6123 0.118164H11.3965C11.7598 0.118164 12.0732 0.223633 12.3369 0.43457C12.6006 0.639648 12.7734 0.915039 12.8555 1.26074L13.2158 2.81641L13.4619 2.91309L14.8154 2.07812C15.1201 1.89063 15.4395 1.82031 15.7734 1.86719C16.1133 1.9082 16.4092 2.05762 16.6611 2.31543L17.8916 3.5459C18.1494 3.80957 18.2988 4.1084 18.3398 4.44238C18.3867 4.77637 18.3135 5.09277 18.1201 5.3916L17.2764 6.73633L17.373 6.97363L18.9023 7.34277C19.248 7.4248 19.5234 7.60059 19.7285 7.87012C19.9395 8.13965 20.0449 8.45312 20.0449 8.81055V10.542C20.0449 10.8994 19.9395 11.2129 19.7285 11.4824C19.5234 11.7461 19.248 11.9219 18.9023 12.0098L17.3555 12.3701L17.2676 12.5898L18.1113 13.9346C18.3047 14.2393 18.3779 14.5586 18.3311 14.8926C18.29 15.2266 18.1406 15.5254 17.8828 15.7891L16.6523 17.0107C16.3945 17.2686 16.0957 17.418 15.7559 17.459C15.4219 17.5059 15.1025 17.4326 14.7979 17.2393L13.4443 16.4131L13.2158 16.4922L12.8555 18.0479C12.7734 18.3994 12.6006 18.6777 12.3369 18.8828C12.0732 19.0879 11.7598 19.1904 11.3965 19.1904H9.6123ZM9.83203 17.5996H11.1768C11.3174 17.5996 11.3965 17.5322 11.4141 17.3975L11.9414 15.2354C12.2344 15.1709 12.5068 15.0859 12.7588 14.9805C13.0107 14.8691 13.2451 14.7461 13.4619 14.6113L15.3516 15.7715C15.4629 15.8477 15.5713 15.8359 15.6768 15.7363L16.6084 14.7959C16.7021 14.7139 16.7109 14.6084 16.6348 14.4795L15.4746 12.5986C15.5977 12.3877 15.7119 12.1533 15.8174 11.8955C15.9287 11.6377 16.0166 11.3711 16.0811 11.0957L18.252 10.5771C18.3867 10.5537 18.4541 10.4717 18.4541 10.3311V9.0127C18.4541 8.87793 18.3867 8.7959 18.252 8.7666L16.0898 8.24805C16.0195 7.95508 15.9258 7.67676 15.8086 7.41309C15.6973 7.14941 15.5889 6.92383 15.4834 6.73633L16.6436 4.84668C16.7256 4.72363 16.7168 4.6123 16.6172 4.5127L15.6855 3.59863C15.5859 3.50488 15.4746 3.49023 15.3516 3.55469L13.4619 4.70605C13.2451 4.58301 13.0078 4.46875 12.75 4.36328C12.498 4.25195 12.2285 4.16113 11.9414 4.09082L11.4141 1.91113C11.3965 1.77637 11.3174 1.70898 11.1768 1.70898H9.83203C9.68555 1.70898 9.60059 1.77637 9.57715 1.91113L9.06738 4.07324C8.78613 4.14355 8.50781 4.2373 8.23242 4.35449C7.96289 4.46582 7.72852 4.58008 7.5293 4.69727L5.63965 3.55469C5.52246 3.49023 5.41406 3.50195 5.31445 3.58984L4.37402 4.5127C4.28027 4.6123 4.27148 4.72363 4.34766 4.84668L5.50781 6.73633C5.4082 6.92383 5.2998 7.14941 5.18262 7.41309C5.06543 7.67676 4.97461 7.95508 4.91016 8.24805L2.74805 8.7666C2.61328 8.7959 2.5459 8.87793 2.5459 9.0127V10.3311C2.5459 10.4717 2.61328 10.5537 2.74805 10.5771L4.91016 11.0869C4.98047 11.3682 5.07129 11.6377 5.18262 11.8955C5.29395 12.1475 5.4082 12.3818 5.52539 12.5986L4.35645 14.4883C4.28613 14.6113 4.29492 14.7168 4.38281 14.8047L5.32324 15.7363C5.42871 15.8359 5.53418 15.8506 5.63965 15.7803L7.53809 14.6113C7.75488 14.7461 7.99219 14.8691 8.25 14.9805C8.51367 15.0859 8.7832 15.1709 9.05859 15.2354L9.57715 17.3975C9.60059 17.5322 9.68555 17.5996 9.83203 17.5996ZM10.5 12.9941C9.89062 12.9941 9.33105 12.8447 8.82129 12.5459C8.31738 12.2412 7.91309 11.8369 7.6084 11.333C7.30957 10.8291 7.16016 10.2695 7.16016 9.6543C7.16016 9.04492 7.30957 8.48828 7.6084 7.98438C7.91309 7.48047 8.31738 7.0791 8.82129 6.78027C9.33105 6.48145 9.89062 6.33203 10.5 6.33203C11.1152 6.33203 11.6748 6.48145 12.1787 6.78027C12.6826 7.0791 13.084 7.48047 13.3828 7.98438C13.6816 8.48828 13.8311 9.04492 13.8311 9.6543C13.8311 10.2637 13.6816 10.8232 13.3828 11.333C13.084 11.8428 12.6826 12.2471 12.1787 12.5459C11.6748 12.8447 11.1152 12.9941 10.5 12.9941ZM10.5 11.4824C10.8281 11.4824 11.1299 11.4004 11.4053 11.2363C11.6807 11.0664 11.8975 10.8438 12.0557 10.5684C12.2197 10.293 12.3018 9.98828 12.3018 9.6543C12.3018 9.32031 12.2197 9.01855 12.0557 8.74902C11.8975 8.47363 11.6807 8.25391 11.4053 8.08984C11.1299 7.92578 10.8281 7.84375 10.5 7.84375C10.166 7.84375 9.86133 7.92578 9.58594 8.08984C9.31055 8.25391 9.09082 8.47363 8.92676 8.74902C8.7627 9.01855 8.68066 9.32031 8.68066 9.6543C8.68066 9.99414 8.7627 10.3018 8.92676 10.5771C9.09082 10.8525 9.31055 11.0723 9.58594 11.2363C9.86133 11.4004 10.166 11.4824 10.5 11.4824Z" fill="#000E29"/>
</svg>
