<svg width="30" height="21" viewBox="0 0 30 21" fill="none" xmlns="http://www.w3.org/2000/svg">
<path d="M2.03613 10.9795C1.79004 11.1025 1.57031 11.1523 1.37695 11.1289C1.18359 11.0996 1.02539 11.0234 0.902344 10.9004C0.785156 10.7773 0.708984 10.6309 0.673828 10.4609C0.638672 10.291 0.65625 10.124 0.726562 9.95996C0.802734 9.79004 0.943359 9.64941 1.14844 9.53809L9.65625 5.04688C10.0371 4.84766 10.3975 4.74805 10.7373 4.74805C11.083 4.74805 11.4463 4.84766 11.8271 5.04688L20.3262 9.53809C20.5312 9.64941 20.6689 9.79004 20.7393 9.95996C20.8154 10.124 20.8389 10.291 20.8096 10.4609C20.7803 10.6309 20.7012 10.7773 20.5723 10.9004C20.4492 11.0234 20.291 11.0996 20.0977 11.1289C19.9043 11.1523 19.6875 11.1025 19.4473 10.9795L11.0361 6.64648C10.8369 6.54688 10.6436 6.54688 10.4561 6.64648L2.03613 10.9795ZM5.05957 20.4629C4.41504 20.4629 3.91113 20.2842 3.54785 19.9268C3.19043 19.5752 3.01172 19.0859 3.01172 18.459V9.59082L4.68164 8.6416V17.9404C4.68164 18.21 4.75195 18.418 4.89258 18.5645C5.03906 18.7109 5.24414 18.7842 5.50781 18.7842H15.958C16.2275 18.7842 16.4326 18.7109 16.5732 18.5645C16.7197 18.418 16.793 18.21 16.793 17.9404V8.6416L18.4629 9.63477V18.459C18.4629 19.0859 18.2812 19.5752 17.918 19.9268C17.5605 20.2842 17.0596 20.4629 16.415 20.4629H5.05957ZM8.14453 19.584V13.3438C8.14453 13.1445 8.20312 12.9863 8.32031 12.8691C8.44336 12.7461 8.60449 12.6846 8.80371 12.6846H12.6797C12.8789 12.6846 13.0371 12.7461 13.1543 12.8691C13.2715 12.9863 13.3301 13.1445 13.3301 13.3438V19.584H8.14453ZM23.042 20.4629C22.8369 20.4629 22.6611 20.3867 22.5146 20.2344C22.3682 20.0879 22.2949 19.9092 22.2949 19.6982V1.83008C22.2949 1.44922 22.4678 1.18262 22.8135 1.03027C22.9717 0.959961 23.1299 0.907227 23.2881 0.87207C23.4521 0.836914 23.6836 0.819336 23.9824 0.819336C24.4629 0.819336 24.8965 0.87793 25.2832 0.995117C25.6699 1.1123 26.0508 1.23242 26.4258 1.35547C26.8008 1.47266 27.208 1.53125 27.6475 1.53125C27.9639 1.53125 28.2158 1.50488 28.4033 1.45215C28.5908 1.39355 28.7461 1.36426 28.8691 1.36426C29.2031 1.36426 29.3701 1.5166 29.3701 1.82129V5.70605C29.3701 6.09277 29.2002 6.36523 28.8604 6.52344C28.6963 6.59375 28.5322 6.64648 28.3682 6.68164C28.21 6.71094 27.9814 6.72559 27.6826 6.72559C27.2373 6.72559 26.8271 6.66992 26.4521 6.55859C26.0771 6.44141 25.7021 6.32715 25.3271 6.21582C24.958 6.09863 24.5449 6.04004 24.0879 6.04004C24.0293 6.04004 23.9766 6.04297 23.9297 6.04883C23.8828 6.05469 23.8389 6.05762 23.7979 6.05762V19.6982C23.7979 19.9092 23.7246 20.0879 23.5781 20.2344C23.4316 20.3867 23.2529 20.4629 23.042 20.4629ZM1.45605 20.4629C1.25098 20.4629 1.07227 20.3867 0.919922 20.2344C0.773438 20.0879 0.700195 19.9092 0.700195 19.6982C0.700195 19.499 0.773438 19.3232 0.919922 19.1709C1.07227 19.0244 1.25098 18.9512 1.45605 18.9512H26.6367C26.8418 18.9512 27.0176 19.0244 27.1641 19.1709C27.3105 19.3232 27.3838 19.499 27.3838 19.6982C27.3838 19.9092 27.3105 20.0879 27.1641 20.2344C27.0176 20.3867 26.8418 20.4629 26.6367 20.4629H1.45605Z" fill="#000E29"/>
</svg>
